<svg id="Layer_1" data-name="Layer 1" xmlns="http://www.w3.org/2000/svg" viewBox="0 0 1614.48 1128.27"><defs><style>.cls-1,.cls-10,.cls-11,.cls-12,.cls-13,.cls-14,.cls-15,.cls-16,.cls-17,.cls-18,.cls-19,.cls-2,.cls-20,.cls-21,.cls-22,.cls-23,.cls-24,.cls-25,.cls-26,.cls-27,.cls-28,.cls-29,.cls-3,.cls-30,.cls-31,.cls-32,.cls-33,.cls-34,.cls-35,.cls-36,.cls-37,.cls-38,.cls-39,.cls-4,.cls-40,.cls-41,.cls-42,.cls-43,.cls-44,.cls-45,.cls-46,.cls-47,.cls-48,.cls-49,.cls-5,.cls-50,.cls-51,.cls-52,.cls-53,.cls-54,.cls-55,.cls-56,.cls-57,.cls-58,.cls-59,.cls-6,.cls-60,.cls-61,.cls-62,.cls-63,.cls-64,.cls-65,.cls-66,.cls-67,.cls-68,.cls-69,.cls-7,.cls-70,.cls-71,.cls-72,.cls-73,.cls-74,.cls-75,.cls-76,.cls-77,.cls-78,.cls-79,.cls-8,.cls-80,.cls-81,.cls-82,.cls-9{fill:none;stroke-opacity:0.3;}.cls-1,.cls-12,.cls-2,.cls-3,.cls-57,.cls-70,.cls-76{stroke:#bb6dca;}.cls-1,.cls-10,.cls-29,.cls-36,.cls-63,.cls-67,.cls-73{stroke-width:1.4px;}.cls-11,.cls-15,.cls-2,.cls-24,.cls-64,.cls-65,.cls-69{stroke-width:1.05px;}.cls-25,.cls-3,.cls-40,.cls-44,.cls-48,.cls-50,.cls-58{stroke-width:2.45px;}.cls-26,.cls-36,.cls-39,.cls-4,.cls-40{stroke:#e558b2;}.cls-4,.cls-78{stroke-width:3.85px;}.cls-16,.cls-24,.cls-42,.cls-47,.cls-5,.cls-61,.cls-62,.cls-63,.cls-7,.cls-9{stroke:#e7663b;}.cls-5{stroke-width:10.15px;}.cls-10,.cls-14,.cls-15,.cls-27,.cls-55,.cls-59,.cls-6,.cls-8{stroke:#e65f76;}.cls-22,.cls-34,.cls-46,.cls-6,.cls-66,.cls-74,.cls-76{stroke-width:1.75px;}.cls-7{stroke-width:8.4px;}.cls-13,.cls-54,.cls-57,.cls-60,.cls-62,.cls-75,.cls-8,.cls-80,.cls-81{stroke-width:0.35px;}.cls-41,.cls-9{stroke-width:5.6px;}.cls-11,.cls-13,.cls-17,.cls-30,.cls-32,.cls-45,.cls-46,.cls-49,.cls-58,.cls-67{stroke:#bc748e;}.cls-12,.cls-14,.cls-20,.cls-26,.cls-38,.cls-49,.cls-61,.cls-68,.cls-79{stroke-width:0.7px;}.cls-16{stroke-width:12.25px;}.cls-17,.cls-72{stroke-width:4.2px;}.cls-18,.cls-19,.cls-21,.cls-37,.cls-38,.cls-41,.cls-43,.cls-48,.cls-56,.cls-64,.cls-66,.cls-80{stroke:#b3911d;}.cls-18,.cls-82{stroke-width:8.75px;}.cls-19{stroke-width:16.1px;}.cls-20,.cls-29,.cls-34,.cls-44,.cls-51,.cls-60,.cls-65{stroke:#9183e2;}.cls-21,.cls-28,.cls-45,.cls-51,.cls-59,.cls-70{stroke-width:2.1px;}.cls-22,.cls-28,.cls-35,.cls-50,.cls-52,.cls-53,.cls-54,.cls-68,.cls-71,.cls-72,.cls-82{stroke:#88a071;}.cls-23,.cls-33,.cls-73,.cls-74,.cls-81{stroke:#80bd00;}.cls-23{stroke-width:14.7px;}.cls-25,.cls-31,.cls-69,.cls-75,.cls-77,.cls-78,.cls-79{stroke:#b28a59;}.cls-27,.cls-30,.cls-47,.cls-52{stroke-width:3.15px;}.cls-31,.cls-43{stroke-width:4.9px;}.cls-32,.cls-39,.cls-53,.cls-55{stroke-width:2.8px;}.cls-33{stroke-width:9.45px;}.cls-35{stroke-width:10.5px;}.cls-37{stroke-width:7.35px;}.cls-42,.cls-77{stroke-width:3.5px;}.cls-56{stroke-width:4.55px;}.cls-71{stroke-width:7px;}.cls-83{fill:#80bd00;}.cls-83,.cls-84,.cls-85,.cls-86{stroke:#000;}.cls-84{fill:#e7663b;}.cls-85{fill:#e558b2;}.cls-86{fill:#9183e2;}.cls-87,.cls-88,.cls-89,.cls-90,.cls-91,.cls-92,.cls-93,.cls-94,.cls-95,.cls-96,.cls-97,.cls-98{isolation:isolate;fill:#fff;font-family:Estedad-Medium, Estedad;font-weight:500;}.cls-87{font-size:39px;}.cls-88{font-size:29px;}.cls-89{font-size:23px;}.cls-90{font-size:22px;}.cls-91{font-size:21px;}.cls-92{font-size:17px;}.cls-93{font-size:19px;}.cls-94{font-size:18px;}.cls-95{font-size:16px;}.cls-96{font-size:15px;}.cls-97{font-size:14px;}.cls-98{font-size:13px;}</style></defs><title>Samp</title><g id="edges"><path class="cls-1" d="M1360,1046.52c-26.66-79.79,53-239.49,132.85-266.15" transform="translate(-292.18 -145.64)"/><path class="cls-2" d="M1360,1046.52c18.39-183.15,320.71-430.28,503.86-411.89" transform="translate(-292.18 -145.64)"/><path class="cls-3" d="M1492.89,780.37c26.66,79.8-53.05,239.49-132.85,266.15" transform="translate(-292.18 -145.64)"/><path class="cls-4" d="M1492.89,780.37c45-103.35,267.66-190.79,371-145.74" transform="translate(-292.18 -145.64)"/><path class="cls-5" d="M685.27,682C674.57,575.25,818.71,399,925.5,388.3" transform="translate(-292.18 -145.64)"/><path class="cls-6" d="M685.27,682c226.24-245.21,933.42-273.65,1178.63-47.41" transform="translate(-292.18 -145.64)"/><path class="cls-7" d="M685.27,682c-59.45-130.7,47.44-415.94,178.14-475.39" transform="translate(-292.18 -145.64)"/><path class="cls-8" d="M925.5,388.3c237-138.41,800,9.39,938.4,246.33" transform="translate(-292.18 -145.64)"/><path class="cls-9" d="M925.5,388.3c-48.74-23.91-86-132.9-62.09-181.65" transform="translate(-292.18 -145.64)"/><path class="cls-10" d="M1863.9,634.63c-285.7,114.5-886-142.28-1000.49-428" transform="translate(-292.18 -145.64)"/><path class="cls-11" d="M1360,1046.52C1141.49,1001.79,880.77,606.86,925.5,388.3" transform="translate(-292.18 -145.64)"/><path class="cls-12" d="M1360,1046.52c75.61-124.93,376.44-198.91,501.37-123.29" transform="translate(-292.18 -145.64)"/><path class="cls-13" d="M1360,1046.52C1092.74,977.88,794.76,474,863.41,206.65" transform="translate(-292.18 -145.64)"/><path class="cls-14" d="M925.5,388.3c294.17-80.19,855.72,240.76,935.91,534.93" transform="translate(-292.18 -145.64)"/><path class="cls-15" d="M1861.41,923.23c-342.91,56.28-941.71-373.66-998-716.58" transform="translate(-292.18 -145.64)"/><path class="cls-16" d="M925.5,388.3c10.7,106.8-133.44,283-240.23,293.74" transform="translate(-292.18 -145.64)"/><path class="cls-17" d="M685.27,682C893.12,620,1298,838.67,1360,1046.52" transform="translate(-292.18 -145.64)"/><path class="cls-18" d="M1369.46,451.76C1278.68,634.66,868.16,772.82,685.27,682" transform="translate(-292.18 -145.64)"/><path class="cls-19" d="M685.27,682c90.78-182.89,501.3-321.06,684.19-230.28" transform="translate(-292.18 -145.64)"/><path class="cls-20" d="M1573.47,1160.55c-157.49,136.88-599,106-735.91-51.54" transform="translate(-292.18 -145.64)"/><path class="cls-21" d="M1264.56,711.43c-121.73,110-469.31,92.35-579.29-29.39" transform="translate(-292.18 -145.64)"/><path class="cls-22" d="M945.62,842.56c6.61-162.93,260.92-397.41,423.84-390.8" transform="translate(-292.18 -145.64)"/><path class="cls-23" d="M1369.46,451.76c31,72.92-32,228.71-104.9,259.67" transform="translate(-292.18 -145.64)"/><path class="cls-2" d="M1863.9,634.63c-18.4,183.15-320.71,430.29-503.86,411.89" transform="translate(-292.18 -145.64)"/><path class="cls-24" d="M595.86,437.27C662.69,468.35,716.34,615.21,685.27,682" transform="translate(-292.18 -145.64)"/><path class="cls-25" d="M1369.46,451.76c135.46-62.31,432.12,47.41,494.44,182.87" transform="translate(-292.18 -145.64)"/><path class="cls-1" d="M945.62,842.56c142.07-225.25,693-350,918.28-207.93" transform="translate(-292.18 -145.64)"/><path class="cls-2" d="M945.62,842.56c97-121.89,425.38-159.2,547.27-62.19" transform="translate(-292.18 -145.64)"/><path class="cls-1" d="M1863.9,634.63c-142.07,225.24-693,350-918.28,207.93" transform="translate(-292.18 -145.64)"/><path class="cls-26" d="M1863.9,634.63c-45.06,103.35-267.66,190.8-371,145.74" transform="translate(-292.18 -145.64)"/><path class="cls-22" d="M1360,1046.52c-117.07-120.83-111.41-477.69,9.42-594.76" transform="translate(-292.18 -145.64)"/><path class="cls-25" d="M1369.46,451.76c90.41,41,164.46,238.21,123.43,328.61" transform="translate(-292.18 -145.64)"/><path class="cls-27" d="M1492.89,780.37C1311.7,922.23,827.13,863.23,685.27,682" transform="translate(-292.18 -145.64)"/><path class="cls-28" d="M1369.46,451.76c-6.61,162.93-260.91,397.41-423.84,390.8" transform="translate(-292.18 -145.64)"/><path class="cls-29" d="M1113.64,948.41c-54.78,12.44-155.59-51.08-168-105.85" transform="translate(-292.18 -145.64)"/><path class="cls-29" d="M945.62,842.56c54.77-12.44,155.59,51.08,168,105.85" transform="translate(-292.18 -145.64)"/><path class="cls-30" d="M685.27,682c273.34-81.94,806.26,205.17,888.2,478.51" transform="translate(-292.18 -145.64)"/><path class="cls-31" d="M1492.89,780.37c-90.41-41-164.46-238.2-123.43-328.61" transform="translate(-292.18 -145.64)"/><path class="cls-32" d="M1360,1046.52C1152.19,1108.58,747.33,889.89,685.27,682" transform="translate(-292.18 -145.64)"/><path class="cls-33" d="M1264.56,711.43c-31-72.92,32-228.71,104.9-259.67" transform="translate(-292.18 -145.64)"/><path class="cls-34" d="M837.56,1109c23.1-87.34,188.75-183.69,276.08-160.6" transform="translate(-292.18 -145.64)"/><path class="cls-35" d="M1264.56,711.43c-37.56,90-228.93,168.69-318.94,131.13" transform="translate(-292.18 -145.64)"/><path class="cls-36" d="M1863.9,634.63c57.22,58.22,55.73,231.38-2.49,288.6" transform="translate(-292.18 -145.64)"/><path class="cls-24" d="M925.5,388.3C788.87,458.43,478.74,358.66,408.62,222" transform="translate(-292.18 -145.64)"/><path class="cls-37" d="M925.5,388.3c101.49-76.1,367.86-38,444,63.46" transform="translate(-292.18 -145.64)"/><path class="cls-38" d="M408.62,222c238.11-146.22,814.62-8.38,960.84,229.73" transform="translate(-292.18 -145.64)"/><path class="cls-39" d="M1861.41,923.23c-102.27,45.13-323.39-40.58-368.52-142.86" transform="translate(-292.18 -145.64)"/><path class="cls-40" d="M1861.41,923.23c-57.22-58.22-55.73-231.38,2.49-288.6" transform="translate(-292.18 -145.64)"/><path class="cls-13" d="M837.56,1109c-175.93,23.48-475-205.2-498.51-381.13" transform="translate(-292.18 -145.64)"/><path class="cls-41" d="M863.41,206.65c150.23-52.19,453.87,94.88,506.05,245.11" transform="translate(-292.18 -145.64)"/><path class="cls-42" d="M863.41,206.65c48.75,23.91,86,132.91,62.09,181.65" transform="translate(-292.18 -145.64)"/><path class="cls-43" d="M1369.46,451.76c-101.48,76.1-367.86,38-444-63.46" transform="translate(-292.18 -145.64)"/><path class="cls-3" d="M1492.89,780.37c-97,121.89-425.38,159.2-547.27,62.19" transform="translate(-292.18 -145.64)"/><path class="cls-32" d="M685.27,682c84.17-20,240.38,76.34,260.35,160.52" transform="translate(-292.18 -145.64)"/><path class="cls-44" d="M945.62,842.56c123.68-42.09,372.33,80.29,414.42,204" transform="translate(-292.18 -145.64)"/><path class="cls-45" d="M925.5,388.3c94.88,86.83,107,359.38,20.12,454.26" transform="translate(-292.18 -145.64)"/><path class="cls-29" d="M945.62,842.56c189.17-62,565.88,128.82,627.85,318" transform="translate(-292.18 -145.64)"/><path class="cls-46" d="M945.62,842.56C850.75,755.73,838.68,483.18,925.5,388.3" transform="translate(-292.18 -145.64)"/><path class="cls-46" d="M945.62,842.56C802,731.82,752.67,350.27,863.41,206.65" transform="translate(-292.18 -145.64)"/><path class="cls-47" d="M863.41,206.65C922.86,337.36,816,622.59,685.27,682" transform="translate(-292.18 -145.64)"/><path class="cls-48" d="M1369.46,451.76C1219.23,504,915.6,356.89,863.41,206.65" transform="translate(-292.18 -145.64)"/><path class="cls-49" d="M685.27,682C801.12,737,892.5,993.16,837.56,1109" transform="translate(-292.18 -145.64)"/><path class="cls-13" d="M837.56,1109C662.26,923.37,677.77,382,863.41,206.65" transform="translate(-292.18 -145.64)"/><path class="cls-50" d="M837.56,1109c-25.07-237.83,294.07-632.18,531.9-657.25" transform="translate(-292.18 -145.64)"/><path class="cls-51" d="M1113.64,948.41c134.39-49.53,410.29,77.75,459.83,212.14" transform="translate(-292.18 -145.64)"/><path class="cls-52" d="M1113.64,948.41C1065.48,797.92,1219,499.93,1369.46,451.76" transform="translate(-292.18 -145.64)"/><path class="cls-53" d="M1369.46,451.76c48.17,150.5-105.32,448.49-255.82,496.65" transform="translate(-292.18 -145.64)"/><path class="cls-54" d="M632.65,998.5c38-256.71,480.1-584.75,736.81-546.74" transform="translate(-292.18 -145.64)"/><path class="cls-24" d="M925.5,388.3c-56.13,75.73-253.92,105.11-329.64,49" transform="translate(-292.18 -145.64)"/><path class="cls-24" d="M685.27,682C618.43,651,564.79,504.11,595.86,437.27" transform="translate(-292.18 -145.64)"/><path class="cls-29" d="M1360,1046.52c65.49-19.88,193.55,48.54,213.43,114" transform="translate(-292.18 -145.64)"/><path class="cls-45" d="M925.5,388.3c149.65,74.4,262.54,410.46,188.14,560.11" transform="translate(-292.18 -145.64)"/><path class="cls-25" d="M1863.9,634.63c-135.46,62.31-432.12-47.41-494.44-182.87" transform="translate(-292.18 -145.64)"/><path class="cls-24" d="M863.41,206.65c-7.38,99.64-167.92,238-267.55,230.62" transform="translate(-292.18 -145.64)"/><path class="cls-24" d="M595.86,437.27c56.13-75.72,253.92-105.1,329.64-49" transform="translate(-292.18 -145.64)"/><path class="cls-14" d="M863.41,206.65c240.64-11.15,618.33,333.08,629.48,573.72" transform="translate(-292.18 -145.64)"/><path class="cls-55" d="M1492.89,780.37c-240.64,11.15-618.33-333.08-629.48-573.72" transform="translate(-292.18 -145.64)"/><path class="cls-56" d="M685.27,682c121.74-110,469.31-92.35,579.29,29.39" transform="translate(-292.18 -145.64)"/><path class="cls-56" d="M925.5,388.3c132.44-3.18,335.87,190.69,339.06,323.13" transform="translate(-292.18 -145.64)"/><path class="cls-11" d="M837.56,1109c-115.85-54.94-207.22-311.12-152.29-427" transform="translate(-292.18 -145.64)"/><path class="cls-13" d="M1213.93,1195.12c-267.8-127.59-478.11-720.67-350.52-988.47" transform="translate(-292.18 -145.64)"/><path class="cls-3" d="M1492.89,780.37c-42.25,109.46-269.79,210.28-379.25,168" transform="translate(-292.18 -145.64)"/><path class="cls-57" d="M1492.89,780.37c-65.34,196.79-458.53,394-655.33,328.64" transform="translate(-292.18 -145.64)"/><path class="cls-34" d="M1113.64,948.41c-23.1,87.34-188.74,183.7-276.08,160.6" transform="translate(-292.18 -145.64)"/><path class="cls-24" d="M685.27,682C625.19,760.45,417.46,788,339.05,727.88" transform="translate(-292.18 -145.64)"/><path class="cls-58" d="M685.27,682c139-32.4,396,127.43,428.37,266.37" transform="translate(-292.18 -145.64)"/><path class="cls-13" d="M1004.1,1210.82C823.88,1062,776.72,568.53,925.5,388.3" transform="translate(-292.18 -145.64)"/><path class="cls-57" d="M1004.1,1210.82C1015.77,1027,1309,768.71,1492.89,780.37" transform="translate(-292.18 -145.64)"/><path class="cls-59" d="M925.5,388.3c191.89-35.06,532.32,200.18,567.39,392.07" transform="translate(-292.18 -145.64)"/><path class="cls-20" d="M1573.47,1160.55c-65.49,19.88-193.55-48.53-213.43-114" transform="translate(-292.18 -145.64)"/><path class="cls-60" d="M1573.47,1160.55c-103.82,123.93-445.44,154.09-569.37,50.27" transform="translate(-292.18 -145.64)"/><path class="cls-60" d="M1360,1046.52c-38.33,104-251.89,202.63-355.94,164.3" transform="translate(-292.18 -145.64)"/><path class="cls-61" d="M408.62,222C545.25,151.91,855.38,251.67,925.5,388.3" transform="translate(-292.18 -145.64)"/><path class="cls-62" d="M408.62,222c87.88-94,360.76-103.26,454.79-15.38" transform="translate(-292.18 -145.64)"/><path class="cls-45" d="M863.41,206.65c267.3,68.65,565.28,572.58,496.63,839.87" transform="translate(-292.18 -145.64)"/><path class="cls-12" d="M837.56,1109c167.62-241.93,781.93-353.39,1023.85-185.78" transform="translate(-292.18 -145.64)"/><path class="cls-52" d="M837.56,1109c5.89-164.92,262.08-403.47,427-397.58" transform="translate(-292.18 -145.64)"/><path class="cls-45" d="M945.62,842.56c-84.17,20-240.38-76.35-260.35-160.52" transform="translate(-292.18 -145.64)"/><path class="cls-49" d="M945.62,842.56c-231.51-16.71-553.71-389-537-620.53" transform="translate(-292.18 -145.64)"/><path class="cls-63" d="M685.27,682C537.94,645.37,372,369.36,408.62,222" transform="translate(-292.18 -145.64)"/><path class="cls-59" d="M685.27,682c181.19-141.85,665.76-82.86,807.62,98.33" transform="translate(-292.18 -145.64)"/><path class="cls-14" d="M408.62,222C737.14,116.85,1387.7,451.85,1492.89,780.37" transform="translate(-292.18 -145.64)"/><path class="cls-64" d="M1264.56,711.43C1083.38,690.7,842.69,387.84,863.41,206.65" transform="translate(-292.18 -145.64)"/><path class="cls-54" d="M1264.56,711.43c-69,183.79-448.11,356-631.91,287.07" transform="translate(-292.18 -145.64)"/><path class="cls-45" d="M863.41,206.65C975.63,411.17,837.17,886.28,632.65,998.5" transform="translate(-292.18 -145.64)"/><path class="cls-13" d="M1213.93,1195.12C994.88,1091.44,821.83,607.35,925.5,388.3" transform="translate(-292.18 -145.64)"/><path class="cls-60" d="M1213.93,1195.12c-155.58,76.93-504.35-41-581.28-196.62" transform="translate(-292.18 -145.64)"/><path class="cls-49" d="M925.5,388.3C989,568.91,813.26,935,632.65,998.5" transform="translate(-292.18 -145.64)"/><path class="cls-28" d="M1573.47,1160.55c-182.56-101-305-526.23-204-708.79" transform="translate(-292.18 -145.64)"/><path class="cls-55" d="M1492.89,780.37C1301,815.44,960.57,580.19,925.5,388.3" transform="translate(-292.18 -145.64)"/><path class="cls-13" d="M1360,1046.52c-274.69,31-733.2-334.56-764.18-609.25" transform="translate(-292.18 -145.64)"/><path class="cls-20" d="M1213.93,1195.12c-124.17-16.85-285.16-228.39-268.31-352.56" transform="translate(-292.18 -145.64)"/><path class="cls-14" d="M863.41,206.65c342.92-56.28,941.72,373.66,998,716.58" transform="translate(-292.18 -145.64)"/><path class="cls-59" d="M1861.41,923.23c-294.16,80.2-855.71-240.76-935.91-534.93" transform="translate(-292.18 -145.64)"/><path class="cls-14" d="M1861.41,923.23C1578,1110.22,872.26,965.51,685.27,682" transform="translate(-292.18 -145.64)"/><path class="cls-65" d="M1573.47,1160.55c-134.39,49.54-410.29-77.74-459.83-212.14" transform="translate(-292.18 -145.64)"/><path class="cls-66" d="M1369.46,451.76c-157.62,151.83-621.78,143.13-773.6-14.49" transform="translate(-292.18 -145.64)"/><path class="cls-13" d="M925.5,388.3C1052.06,550,999.29,982.46,837.56,1109" transform="translate(-292.18 -145.64)"/><path class="cls-67" d="M1004.1,1210.82c-169.52-42-360.82-359.26-318.83-528.78" transform="translate(-292.18 -145.64)"/><path class="cls-68" d="M1369.46,451.76c117.57,179.78,24.25,625.79-155.53,743.36" transform="translate(-292.18 -145.64)"/><path class="cls-69" d="M1861.41,923.23c-161.73,77-519.84-50.07-596.85-211.8" transform="translate(-292.18 -145.64)"/><path class="cls-10" d="M863.41,206.65c285.69-114.5,886,142.29,1000.49,428" transform="translate(-292.18 -145.64)"/><path class="cls-12" d="M1861.41,923.23c-199.29,167-748.77,118.62-915.79-80.67" transform="translate(-292.18 -145.64)"/><path class="cls-68" d="M1369.46,451.76c117.07,120.84,111.42,477.7-9.42,594.76" transform="translate(-292.18 -145.64)"/><path class="cls-40" d="M1492.89,780.37c102.27-45.13,323.39,40.58,368.52,142.86" transform="translate(-292.18 -145.64)"/><path class="cls-2" d="M945.62,842.56c199.29-167,748.77-118.62,915.79,80.67" transform="translate(-292.18 -145.64)"/><path class="cls-70" d="M1113.64,948.41c42.24-109.45,269.79-210.28,379.25-168" transform="translate(-292.18 -145.64)"/><path class="cls-71" d="M1113.64,948.41c-17.21-77.58,73.34-219.77,150.92-237" transform="translate(-292.18 -145.64)"/><path class="cls-69" d="M1492.89,780.37c-59.46,31.88-196.45-9.49-228.33-68.94" transform="translate(-292.18 -145.64)"/><path class="cls-15" d="M1863.9,634.63C1637.65,879.84,930.48,908.28,685.27,682" transform="translate(-292.18 -145.64)"/><path class="cls-65" d="M1360,1046.52c-92,117-405.48,154.49-522.48,62.49" transform="translate(-292.18 -145.64)"/><path class="cls-8" d="M1861.41,923.23c-343.54,265.4-1257,148.19-1522.36-195.35" transform="translate(-292.18 -145.64)"/><path class="cls-1" d="M1492.89,780.37C1364.46,996,848.32,1126.92,632.65,998.5" transform="translate(-292.18 -145.64)"/><path class="cls-46" d="M685.27,682c52.77,73.82,21.2,263.69-52.62,316.46" transform="translate(-292.18 -145.64)"/><path class="cls-49" d="M632.65,998.5C579.88,924.68,611.46,734.81,685.27,682" transform="translate(-292.18 -145.64)"/><path class="cls-72" d="M1573.47,1160.55c-151.61-28-337-297.52-308.91-449.12" transform="translate(-292.18 -145.64)"/><path class="cls-2" d="M1861.41,923.23C1785.8,1048.16,1485,1122.14,1360,1046.52" transform="translate(-292.18 -145.64)"/><path class="cls-57" d="M1863.9,634.63c47.1,163.27-127.16,478.82-290.43,525.92" transform="translate(-292.18 -145.64)"/><path class="cls-3" d="M1492.89,780.37c92.15,59.92,140.5,288,80.58,380.18" transform="translate(-292.18 -145.64)"/><path class="cls-60" d="M1360,1046.52c.5,59-87.17,148.1-146.11,148.6" transform="translate(-292.18 -145.64)"/><path class="cls-18" d="M1264.56,711.43C1132.13,714.61,928.69,520.74,925.5,388.3" transform="translate(-292.18 -145.64)"/><path class="cls-60" d="M632.65,998.5c155.58-76.93,504.35,41,581.28,196.62" transform="translate(-292.18 -145.64)"/><path class="cls-73" d="M1369.46,451.76c44-93.91,250.83-168.79,344.74-124.81" transform="translate(-292.18 -145.64)"/><path class="cls-74" d="M1714.2,327c-44,93.91-250.83,168.8-344.74,124.81" transform="translate(-292.18 -145.64)"/><path class="cls-64" d="M1714.2,327c-194.22,146.1-704.69,73.92-850.79-120.3" transform="translate(-292.18 -145.64)"/><path class="cls-20" d="M632.65,998.5c86.18-106.22,374.78-136.27,481-50.09" transform="translate(-292.18 -145.64)"/><path class="cls-2" d="M632.65,998.5C761.07,782.83,1277.21,652,1492.89,780.37" transform="translate(-292.18 -145.64)"/><path class="cls-67" d="M925.5,388.3C1144.06,433,1404.78,828,1360,1046.52" transform="translate(-292.18 -145.64)"/><path class="cls-65" d="M1573.47,1160.55c-189.17,62-565.88-128.82-627.85-318" transform="translate(-292.18 -145.64)"/><path class="cls-49" d="M1573.47,1160.55C1300.13,1242.49,767.21,955.38,685.27,682" transform="translate(-292.18 -145.64)"/><path class="cls-60" d="M1360,1046.52c-155.08,135.88-591.52,107.06-727.39-48" transform="translate(-292.18 -145.64)"/><path class="cls-13" d="M1113.64,948.41c-199,110.82-663.78-21.5-774.59-220.53" transform="translate(-292.18 -145.64)"/><path class="cls-20" d="M945.62,842.56c124.17,16.85,285.16,228.38,268.31,352.56" transform="translate(-292.18 -145.64)"/><path class="cls-62" d="M408.62,222C556,258.7,721.94,534.71,685.27,682" transform="translate(-292.18 -145.64)"/><path class="cls-60" d="M837.56,1109c-63.08,18.88-186-47.43-204.91-110.51" transform="translate(-292.18 -145.64)"/><path class="cls-11" d="M837.56,1109C711,947.28,763.77,514.86,925.5,388.3" transform="translate(-292.18 -145.64)"/><path class="cls-49" d="M632.65,998.5C569.18,817.89,744.9,451.77,925.5,388.3" transform="translate(-292.18 -145.64)"/><path class="cls-12" d="M1863.9,634.63C1753.51,934.77,1137.71,1219.4,837.56,1109" transform="translate(-292.18 -145.64)"/><path class="cls-65" d="M837.56,1109c-31.68-74.9,33.16-234.77,108.06-266.45" transform="translate(-292.18 -145.64)"/><path class="cls-49" d="M863.41,206.65c332.79,48.77,758.83,621.11,710.06,953.9" transform="translate(-292.18 -145.64)"/><path class="cls-49" d="M945.62,842.56c-151-11.11-360.87-254.28-349.76-405.29" transform="translate(-292.18 -145.64)"/><path class="cls-75" d="M1863.9,634.63c-104.51,135.23-464.11,181.3-599.34,76.8" transform="translate(-292.18 -145.64)"/><path class="cls-62" d="M339.05,727.88C399.12,649.47,606.86,622,685.27,682" transform="translate(-292.18 -145.64)"/><path class="cls-20" d="M632.65,998.5c31.41-93.78,219.19-187.35,313-155.94" transform="translate(-292.18 -145.64)"/><path class="cls-76" d="M1113.64,948.41c144.52-154.59,593.18-169.7,747.77-25.18" transform="translate(-292.18 -145.64)"/><path class="cls-20" d="M945.62,842.56c-31.41,93.78-219.19,187.34-313,155.94" transform="translate(-292.18 -145.64)"/><path class="cls-38" d="M1264.56,711.43C1076,790.34,674.77,625.85,595.86,437.27" transform="translate(-292.18 -145.64)"/><path class="cls-77" d="M1861.41,923.23c-192.68,4.1-487.85-278.78-491.95-471.47" transform="translate(-292.18 -145.64)"/><path class="cls-78" d="M1369.46,451.76c192.69-4.09,487.86,278.79,492,471.47" transform="translate(-292.18 -145.64)"/><path class="cls-64" d="M685.27,682C820,405.24,1437.39,192.18,1714.2,327" transform="translate(-292.18 -145.64)"/><path class="cls-79" d="M1861.41,923.23c-148.7-89.81-237-447.58-147.21-596.28" transform="translate(-292.18 -145.64)"/><path class="cls-49" d="M863.41,206.65C1007,317.39,1056.36,698.93,945.62,842.56" transform="translate(-292.18 -145.64)"/><path class="cls-61" d="M339.05,727.88C388.42,542.67,740.3,338.93,925.5,388.3" transform="translate(-292.18 -145.64)"/><path class="cls-60" d="M1113.64,948.41c69.4,29.29,129.57,177.31,100.29,246.71" transform="translate(-292.18 -145.64)"/><path class="cls-54" d="M632.65,998.5C714.65,647.88,1363.58,245,1714.2,327" transform="translate(-292.18 -145.64)"/><path class="cls-75" d="M1492.89,780.37c-46.43-134.94,86.36-407,221.31-453.42" transform="translate(-292.18 -145.64)"/><path class="cls-62" d="M339.05,727.88C251.79,612.8,293.53,309.29,408.62,222" transform="translate(-292.18 -145.64)"/><path class="cls-13" d="M1360,1046.52C1004.86,1071.91,434,577.21,408.62,222" transform="translate(-292.18 -145.64)"/><path class="cls-51" d="M1360,1046.52c-68.9,29.66-216.74-29.2-246.4-98.11" transform="translate(-292.18 -145.64)"/><path class="cls-65" d="M1113.64,948.41c68.9-29.65,216.74,29.21,246.4,98.11" transform="translate(-292.18 -145.64)"/><path class="cls-13" d="M632.65,998.5C520.44,794,658.89,318.87,863.41,206.65" transform="translate(-292.18 -145.64)"/><path class="cls-49" d="M632.65,998.5C432.55,888,298.13,422.13,408.62,222" transform="translate(-292.18 -145.64)"/><path class="cls-49" d="M863.41,206.65C1061.81,305,1212,750,1113.64,948.41" transform="translate(-292.18 -145.64)"/><path class="cls-2" d="M1573.47,1160.55c10.12-105,182.89-247.44,287.94-237.32" transform="translate(-292.18 -145.64)"/><path class="cls-69" d="M1264.56,711.43c59.46-31.88,196.45,9.49,228.33,68.94" transform="translate(-292.18 -145.64)"/><path class="cls-80" d="M863.41,206.65c181.19,20.73,421.88,323.59,401.15,504.78" transform="translate(-292.18 -145.64)"/><path class="cls-62" d="M925.5,388.3c-49.37,185.21-401.25,389-586.45,339.58" transform="translate(-292.18 -145.64)"/><path class="cls-2" d="M1573.47,1160.55c-92.15-59.92-140.5-288-80.58-380.18" transform="translate(-292.18 -145.64)"/><path class="cls-68" d="M1369.46,451.76c25.07,237.83-294.07,632.18-531.9,657.25" transform="translate(-292.18 -145.64)"/><path class="cls-79" d="M1264.56,711.43c104.51-135.23,464.11-181.31,599.34-76.8" transform="translate(-292.18 -145.64)"/><path class="cls-8" d="M1863.9,634.63c-237,138.41-800-9.38-938.4-246.33" transform="translate(-292.18 -145.64)"/><path class="cls-49" d="M1113.64,948.41c-139,32.4-396-127.42-428.37-266.37" transform="translate(-292.18 -145.64)"/><path class="cls-13" d="M1113.64,948.41C964,874,851.11,538,925.5,388.3" transform="translate(-292.18 -145.64)"/><path class="cls-68" d="M1264.56,711.43c-5.88,164.91-262.08,403.46-427,397.58" transform="translate(-292.18 -145.64)"/><path class="cls-13" d="M1573.47,1160.55c-284-24.85-672.82-488.2-648-772.25" transform="translate(-292.18 -145.64)"/><path class="cls-54" d="M1369.46,451.76c182.56,101,305,526.23,204,708.79" transform="translate(-292.18 -145.64)"/><path class="cls-12" d="M1863.9,634.63c-87.3,212.81-537.45,401.08-750.26,313.78" transform="translate(-292.18 -145.64)"/><path class="cls-13" d="M632.65,998.5C513.05,893.61,491,556.88,595.86,437.27" transform="translate(-292.18 -145.64)"/><path class="cls-13" d="M595.86,437.27c119.6,104.89,141.68,441.62,36.79,561.23" transform="translate(-292.18 -145.64)"/><path class="cls-80" d="M1369.46,451.76c-150.86,261.31-769.11,427-1030.41,276.12" transform="translate(-292.18 -145.64)"/><path class="cls-81" d="M1714.2,327c-13,166.82-282.82,397.51-449.64,384.48" transform="translate(-292.18 -145.64)"/><path class="cls-80" d="M339.05,727.88c150.86-261.31,769.11-427,1030.41-276.12" transform="translate(-292.18 -145.64)"/><path class="cls-60" d="M632.65,998.5c63.09-18.88,186,47.42,204.91,110.51" transform="translate(-292.18 -145.64)"/><path class="cls-60" d="M945.62,842.56c31.68,74.9-33.15,234.77-108.06,266.45" transform="translate(-292.18 -145.64)"/><path class="cls-57" d="M1863.9,634.63C1690.42,953.65,951.67,1172,632.65,998.5" transform="translate(-292.18 -145.64)"/><path class="cls-13" d="M595.86,437.27c151,11.11,360.86,254.28,349.76,405.29" transform="translate(-292.18 -145.64)"/><path class="cls-80" d="M595.86,437.27c157.62-151.82,621.78-143.13,773.6,14.49" transform="translate(-292.18 -145.64)"/><path class="cls-14" d="M1492.89,780.37C1164.36,885.56,513.8,550.55,408.62,222" transform="translate(-292.18 -145.64)"/><path class="cls-82" d="M945.62,842.56c37.56-90,228.93-168.7,318.94-131.13" transform="translate(-292.18 -145.64)"/><path class="cls-12" d="M1861.41,923.23c-144.52,154.59-593.18,169.7-747.77,25.18" transform="translate(-292.18 -145.64)"/><path class="cls-79" d="M1264.56,711.43c161.73-77,519.84,50.07,596.85,211.8" transform="translate(-292.18 -145.64)"/><path class="cls-13" d="M408.62,222c200.1,110.49,334.52,576.37,224,776.47" transform="translate(-292.18 -145.64)"/><path class="cls-57" d="M837.56,1109C948,808.87,1563.75,524.24,1863.9,634.63" transform="translate(-292.18 -145.64)"/><path class="cls-13" d="M863.41,206.65c175.3,185.64,159.79,727.06-25.85,902.36" transform="translate(-292.18 -145.64)"/><path class="cls-57" d="M837.56,1109c65.34-196.79,458.53-394,655.33-328.64" transform="translate(-292.18 -145.64)"/><path class="cls-54" d="M1714.2,327c-18.92,331.74-544.9,801-876.64,782.06" transform="translate(-292.18 -145.64)"/><path class="cls-12" d="M1861.41,923.23c-10.12,105-182.89,247.45-287.94,237.32" transform="translate(-292.18 -145.64)"/><path class="cls-62" d="M863.41,206.65c-87.88,94-360.76,103.26-454.79,15.38" transform="translate(-292.18 -145.64)"/><path class="cls-57" d="M1861.41,923.23C1693.8,1165.16,1079.49,1276.62,837.56,1109" transform="translate(-292.18 -145.64)"/><path class="cls-60" d="M837.56,1109c92-117,405.49-154.48,522.48-62.49" transform="translate(-292.18 -145.64)"/></g><g id="nodes"><circle class="cls-83" cx="1077.29" cy="306.13" r="65"/><circle class="cls-84" cx="393.1" cy="536.41" r="47.97"/><circle class="cls-83" cx="972.39" cy="565.79" r="37.94"/><circle class="cls-84" cx="633.33" cy="242.67" r="36.86"/><circle class="cls-85" cx="1200.71" cy="634.74" r="35.68"/><circle class="cls-86" cx="653.44" cy="696.92" r="32.88"/><circle class="cls-84" cx="571.24" cy="61.02" r="31.2"/><circle class="cls-86" cx="1113.64" cy="948.41" r="31.17" transform="matrix(1, -0.1, 0.1, 1, -380.21, -31.29)"/><circle class="cls-86" cx="1360.04" cy="1046.52" r="30.97" transform="translate(-72.44 2183.32) rotate(-85.93)"/><circle class="cls-85" cx="1569.24" cy="777.59" r="29.73"/><circle class="cls-86" cx="545.39" cy="963.37" r="28.08"/><circle class="cls-85" cx="1571.72" cy="488.99" r="27.92"/><circle class="cls-86" cx="1281.3" cy="1014.92" r="27.16"/><circle class="cls-84" cx="46.87" cy="582.24" r="24.6"/><circle class="cls-84" cx="303.68" cy="291.64" r="24.37"/><circle class="cls-86" cx="340.48" cy="852.86" r="23.41"/><circle class="cls-83" cx="1422.02" cy="181.32" r="22.72"/><circle class="cls-84" cx="116.44" cy="76.39" r="22.07"/><circle class="cls-86" cx="711.92" cy="1065.19" r="22"/><circle class="cls-86" cx="921.76" cy="1049.48" r="22"/></g><g id="node-labels"><text class="cls-87" transform="translate(1023.19 291.95) scale(0.6)">روتوم نغور<tspan x="22.34" y="78">یداصتقا</tspan></text><text class="cls-88" transform="translate(356.48 538.89) scale(0.6)">یناریا دنرب</text><text class="cls-89" transform="translate(940.14 556.25) scale(0.6)">روتوم نغور<tspan x="19.88" y="46">مویمرپ</tspan></text><text class="cls-90" transform="translate(602.47 244.4) scale(0.6)">یتادراو دنرب</text><text class="cls-91" transform="translate(1174.21 624.13) scale(0.6)">راکسیورس<tspan x="-4.94" y="42">هدش هیصوت</tspan></text><text class="cls-92" transform="translate(630.04 686.01) scale(0.6)">یط تیلباق<tspan x="9.68" y="23.33">تفاسم</tspan><tspan x="15.86" y="46.67">رتشیب</tspan></text><text class="cls-93" transform="translate(556.91 53.35) scale(0.6)">تلاصا<tspan x="-19.27" y="30">روتوم نغور</tspan></text><text class="cls-93" transform="translate(798.22 804.35) scale(0.6)">ندرکن مک</text><text class="cls-93" transform="translate(1057.51 889.24) scale(0.6)">مدع<tspan x="-22.31" y="38">یگدنبسچ</tspan></text><text class="cls-94" transform="translate(1546.07 769.76) scale(0.6)">اب تییانشآ<tspan x="0" y="36">راکسیورس</tspan></text><text class="cls-92" transform="translate(527.81 953.63) scale(0.6)">تیفافش<tspan x="-10.42" y="34">روتوم نغور</tspan></text><text class="cls-92" transform="translate(1553.18 481.12) scale(0.6)">هب دامتعا<tspan x="-4.01" y="34">راکسیورس</tspan></text><text class="cls-95" transform="translate(1260.71 1004.24) scale(0.6)">ناور و مرن<tspan x="-5.31" y="23.33">ندرک تکرح</tspan><tspan x="15.21" y="46.67">روتوم</tspan></text><text class="cls-96" transform="translate(31.87 584.23) scale(0.6)">تاغیلبت</text><text class="cls-96" transform="translate(283.2 285.49) scale(0.6)">سرتسد رد<tspan x="17.89" y="30">ندوب</tspan></text><text class="cls-97" transform="translate(324.36 856.12) scale(0.6)">درادناتسا</text><text class="cls-97" transform="translate(1402 177.21) scale(0.6)">یور فیفخت<tspan x="18.18" y="28">دیرخ</tspan></text><text class="cls-98" transform="translate(101.86 70.88) scale(0.6)">تحت دنرب<tspan x="1.09" y="26">سناسیل</tspan></text><text class="cls-98" transform="translate(699.67 1057) scale(0.6)">تیصاخ<tspan x="-7.01" y="26">شیاسدض</tspan></text><text class="cls-98" transform="translate(907.51 1043.27) scale(0.6)">رمع لوط<tspan x="9.73" y="26">روتوم</tspan></text></g></svg>