<?xml version="1.0" encoding="utf-8"?>
<!-- Generator: Adobe Illustrator 24.0.2, SVG Export Plug-In . SVG Version: 6.00 Build 0)  -->
<svg version="1.1" id="Layer_1" xmlns="http://www.w3.org/2000/svg" xmlns:xlink="http://www.w3.org/1999/xlink" x="0px" y="0px"
	 viewBox="0 0 2172.9 1390.5" style="enable-background:new 0 0 2172.9 1390.5;" xml:space="preserve">
<style type="text/css">
	.st0{fill:none;stroke:#BB6DCA;stroke-width:1.4;stroke-opacity:0.298;}
	.st1{fill:none;stroke:#BB6DCA;stroke-width:1.05;stroke-opacity:0.298;}
	.st2{fill:none;stroke:#BB6DCA;stroke-width:2.45;stroke-opacity:0.298;}
	.st3{fill:none;stroke:#E558B2;stroke-width:3.85;stroke-opacity:0.298;}
	.st4{fill:none;stroke:#E7663B;stroke-width:10.15;stroke-opacity:0.298;}
	.st5{fill:none;stroke:#E65F76;stroke-width:1.75;stroke-opacity:0.298;}
	.st6{fill:none;stroke:#E7663B;stroke-width:8.4;stroke-opacity:0.298;}
	.st7{fill:none;stroke:#E65F76;stroke-width:0.35;stroke-opacity:0.298;}
	.st8{fill:none;stroke:#E7663B;stroke-width:5.6;stroke-opacity:0.298;}
	.st9{fill:none;stroke:#E65F76;stroke-width:1.4;stroke-opacity:0.298;}
	.st10{fill:none;stroke:#BC748E;stroke-width:1.05;stroke-opacity:0.298;}
	.st11{fill:none;stroke:#BB6DCA;stroke-width:0.7;stroke-opacity:0.298;}
	.st12{fill:none;stroke:#BC748E;stroke-width:0.35;stroke-opacity:0.298;}
	.st13{fill:none;stroke:#E65F76;stroke-width:0.7;stroke-opacity:0.298;}
	.st14{fill:none;stroke:#E65F76;stroke-width:1.05;stroke-opacity:0.298;}
	.st15{fill:none;stroke:#E7663B;stroke-width:12.25;stroke-opacity:0.298;}
	.st16{fill:none;stroke:#BC748E;stroke-width:4.2;stroke-opacity:0.298;}
	.st17{fill:none;stroke:#B3911D;stroke-width:8.75;stroke-opacity:0.298;}
	.st18{fill:none;stroke:#B3911D;stroke-width:16.1;stroke-opacity:0.298;}
	.st19{fill:none;stroke:#9183E2;stroke-width:0.7;stroke-opacity:0.298;}
	.st20{fill:none;stroke:#B3911D;stroke-width:2.1;stroke-opacity:0.298;}
	.st21{fill:none;stroke:#88A071;stroke-width:1.75;stroke-opacity:0.298;}
	.st22{fill:none;stroke:#80BD00;stroke-width:14.7;stroke-opacity:0.298;}
	.st23{fill:none;stroke:#E7663B;stroke-width:1.05;stroke-opacity:0.298;}
	.st24{fill:none;stroke:#B28A59;stroke-width:2.45;stroke-opacity:0.298;}
	.st25{fill:none;stroke:#E558B2;stroke-width:0.7;stroke-opacity:0.298;}
	.st26{fill:none;stroke:#E65F76;stroke-width:3.15;stroke-opacity:0.298;}
	.st27{fill:none;stroke:#88A071;stroke-width:2.1;stroke-opacity:0.298;}
	.st28{fill:none;stroke:#9183E2;stroke-width:1.4;stroke-opacity:0.298;}
	.st29{fill:none;stroke:#BC748E;stroke-width:3.15;stroke-opacity:0.298;}
	.st30{fill:none;stroke:#B28A59;stroke-width:4.9;stroke-opacity:0.298;}
	.st31{fill:none;stroke:#BC748E;stroke-width:2.8;stroke-opacity:0.298;}
	.st32{fill:none;stroke:#80BD00;stroke-width:9.45;stroke-opacity:0.298;}
	.st33{fill:none;stroke:#9183E2;stroke-width:1.75;stroke-opacity:0.298;}
	.st34{fill:none;stroke:#88A071;stroke-width:10.5;stroke-opacity:0.298;}
	.st35{fill:none;stroke:#E558B2;stroke-width:1.4;stroke-opacity:0.298;}
	.st36{fill:none;stroke:#B3911D;stroke-width:7.35;stroke-opacity:0.298;}
	.st37{fill:none;stroke:#B3911D;stroke-width:0.7;stroke-opacity:0.298;}
	.st38{fill:none;stroke:#E558B2;stroke-width:2.8;stroke-opacity:0.298;}
	.st39{fill:none;stroke:#E558B2;stroke-width:2.45;stroke-opacity:0.298;}
	.st40{fill:none;stroke:#B3911D;stroke-width:5.6;stroke-opacity:0.298;}
	.st41{fill:none;stroke:#E7663B;stroke-width:3.5;stroke-opacity:0.298;}
	.st42{fill:none;stroke:#B3911D;stroke-width:4.9;stroke-opacity:0.298;}
	.st43{fill:none;stroke:#9183E2;stroke-width:2.45;stroke-opacity:0.298;}
	.st44{fill:none;stroke:#BC748E;stroke-width:2.1;stroke-opacity:0.298;}
	.st45{fill:none;stroke:#BC748E;stroke-width:1.75;stroke-opacity:0.298;}
	.st46{fill:none;stroke:#E7663B;stroke-width:3.15;stroke-opacity:0.298;}
	.st47{fill:none;stroke:#B3911D;stroke-width:2.45;stroke-opacity:0.298;}
	.st48{fill:none;stroke:#BC748E;stroke-width:0.7;stroke-opacity:0.298;}
	.st49{fill:none;stroke:#88A071;stroke-width:2.45;stroke-opacity:0.298;}
	.st50{fill:none;stroke:#9183E2;stroke-width:2.1;stroke-opacity:0.298;}
	.st51{fill:none;stroke:#88A071;stroke-width:3.15;stroke-opacity:0.298;}
	.st52{fill:none;stroke:#88A071;stroke-width:2.8;stroke-opacity:0.298;}
	.st53{fill:none;stroke:#88A071;stroke-width:0.35;stroke-opacity:0.298;}
	.st54{fill:none;stroke:#E65F76;stroke-width:2.8;stroke-opacity:0.298;}
	.st55{fill:none;stroke:#B3911D;stroke-width:4.55;stroke-opacity:0.298;}
	.st56{fill:none;stroke:#BB6DCA;stroke-width:0.35;stroke-opacity:0.298;}
	.st57{fill:none;stroke:#BC748E;stroke-width:2.45;stroke-opacity:0.298;}
	.st58{fill:none;stroke:#E65F76;stroke-width:2.1;stroke-opacity:0.298;}
	.st59{fill:none;stroke:#9183E2;stroke-width:0.35;stroke-opacity:0.298;}
	.st60{fill:none;stroke:#E7663B;stroke-width:0.7;stroke-opacity:0.298;}
	.st61{fill:none;stroke:#E7663B;stroke-width:0.35;stroke-opacity:0.298;}
	.st62{fill:none;stroke:#E7663B;stroke-width:1.4;stroke-opacity:0.298;}
	.st63{fill:none;stroke:#B3911D;stroke-width:1.05;stroke-opacity:0.298;}
	.st64{fill:none;stroke:#9183E2;stroke-width:1.05;stroke-opacity:0.298;}
	.st65{fill:none;stroke:#B3911D;stroke-width:1.75;stroke-opacity:0.298;}
	.st66{fill:none;stroke:#BC748E;stroke-width:1.4;stroke-opacity:0.298;}
	.st67{fill:none;stroke:#88A071;stroke-width:0.7;stroke-opacity:0.298;}
	.st68{fill:none;stroke:#B28A59;stroke-width:1.05;stroke-opacity:0.298;}
	.st69{fill:none;stroke:#BB6DCA;stroke-width:2.1;stroke-opacity:0.298;}
	.st70{fill:none;stroke:#88A071;stroke-width:7;stroke-opacity:0.298;}
	.st71{fill:none;stroke:#88A071;stroke-width:4.2;stroke-opacity:0.298;}
	.st72{fill:none;stroke:#80BD00;stroke-width:1.4;stroke-opacity:0.298;}
	.st73{fill:none;stroke:#80BD00;stroke-width:1.75;stroke-opacity:0.298;}
	.st74{fill:none;stroke:#B28A59;stroke-width:0.35;stroke-opacity:0.298;}
	.st75{fill:none;stroke:#BB6DCA;stroke-width:1.75;stroke-opacity:0.298;}
	.st76{fill:none;stroke:#B28A59;stroke-width:3.5;stroke-opacity:0.298;}
	.st77{fill:none;stroke:#B28A59;stroke-width:3.85;stroke-opacity:0.298;}
	.st78{fill:none;stroke:#B28A59;stroke-width:0.7;stroke-opacity:0.298;}
	.st79{fill:none;stroke:#B3911D;stroke-width:0.35;stroke-opacity:0.298;}
	.st80{fill:none;stroke:#80BD00;stroke-width:0.35;stroke-opacity:0.298;}
	.st81{fill:none;stroke:#88A071;stroke-width:8.75;stroke-opacity:0.298;}
	.st82{fill:#80BD00;stroke:#000000;}
	.st83{fill:#E7663B;stroke:#000000;}
	.st84{fill:#E558B2;stroke:#000000;}
	.st85{fill:#9183E2;stroke:#000000;}
	.st86{enable-background:new    ;}
	.st87{fill:#FFFFFF;}
	.st88{font-family:'Estedad-Medium';}
	.st89{font-size:39px;}
	.st90{font-size:29px;}
	.st91{font-size:23px;}
	.st92{font-size:22px;}
	.st93{font-size:21px;}
	.st94{font-size:17px;}
	.st95{font-size:19px;}
	.st96{font-size:18px;}
	.st97{font-size:16px;}
	.st98{font-size:15px;}
	.st99{font-size:14px;}
	.st100{font-size:13px;}
</style>
<g id="edges">
	<path class="st0" d="M1360,1046.5c-26.7-79.8,53-239.5,132.8-266.2"/>
	<path class="st1" d="M1360,1046.5c18.4-183.2,320.7-430.3,503.9-411.9"/>
	<path class="st2" d="M1492.9,780.4c26.7,79.8-53,239.5-132.8,266.2"/>
	<path class="st3" d="M1492.9,780.4c45.1-103.4,267.7-190.8,371-145.7"/>
	<path class="st4" d="M685.3,682c-10.7-106.8,133.4-283,240.2-293.7"/>
	<path class="st5" d="M685.3,682c226.2-245.2,933.4-273.7,1178.6-47.4"/>
	<path class="st6" d="M685.3,682c-59.4-130.7,47.4-415.9,178.1-475.4"/>
	<path class="st7" d="M925.5,388.3c236.9-138.4,800,9.4,938.4,246.3"/>
	<path class="st8" d="M925.5,388.3c-48.7-23.9-86-132.9-62.1-181.7"/>
	<path class="st9" d="M1863.9,634.6c-285.7,114.5-886-142.3-1000.5-428"/>
	<path class="st10" d="M1360,1046.5c-218.6-44.7-479.3-439.7-434.5-658.2"/>
	<path class="st11" d="M1360,1046.5c75.6-124.9,376.4-198.9,501.4-123.3"/>
	<path class="st12" d="M1360,1046.5C1092.7,977.9,794.8,474,863.4,206.7"/>
	<path class="st13" d="M925.5,388.3c294.2-80.2,855.7,240.8,935.9,534.9"/>
	<path class="st14" d="M1861.4,923.2c-342.9,56.3-941.7-373.7-998-716.6"/>
	<path class="st15" d="M925.5,388.3c10.7,106.8-133.4,283-240.2,293.7"/>
	<path class="st16" d="M685.3,682C893.1,620,1298,838.7,1360,1046.5"/>
	<path class="st17" d="M1369.5,451.8C1278.7,634.7,868.2,772.8,685.3,682"/>
	<path class="st18" d="M685.3,682c90.8-182.9,501.3-321.1,684.2-230.3"/>
	<path class="st19" d="M1573.5,1160.6c-157.5,136.9-599,105.9-735.9-51.5"/>
	<path class="st20" d="M1264.6,711.4c-121.7,110-469.3,92.4-579.3-29.4"/>
	<path class="st21" d="M945.6,842.6c6.6-162.9,260.9-397.4,423.8-390.8"/>
	<path class="st22" d="M1369.5,451.8c31,72.9-32,228.7-104.9,259.7"/>
	<path class="st1" d="M1863.9,634.6c-18.4,183.2-320.7,430.3-503.9,411.9"/>
	<path class="st23" d="M595.9,437.3c66.8,31.1,120.5,177.9,89.4,244.8"/>
	<path class="st24" d="M1369.5,451.8c135.5-62.3,432.1,47.4,494.4,182.9"/>
	<path class="st0" d="M945.6,842.6c142.1-225.2,693-350,918.3-207.9"/>
	<path class="st1" d="M945.6,842.6c97-121.9,425.4-159.2,547.3-62.2"/>
	<path class="st0" d="M1863.9,634.6c-142.1,225.2-693,350-918.3,207.9"/>
	<path class="st25" d="M1863.9,634.6c-45.1,103.4-267.7,190.8-371,145.7"/>
	<path class="st21" d="M1360,1046.5c-117.1-120.8-111.4-477.7,9.4-594.8"/>
	<path class="st24" d="M1369.5,451.8c90.4,41,164.5,238.2,123.4,328.6"/>
	<path class="st26" d="M1492.9,780.4c-181.2,141.9-665.8,82.9-807.6-98.3"/>
	<path class="st27" d="M1369.5,451.8c-6.6,162.9-260.9,397.4-423.8,390.8"/>
	<path class="st28" d="M1113.6,948.4c-54.8,12.4-155.6-51.1-168-105.9"/>
	<path class="st28" d="M945.6,842.6c54.8-12.4,155.6,51.1,168,105.9"/>
	<path class="st29" d="M685.3,682c273.3-81.9,806.3,205.2,888.2,478.5"/>
	<path class="st30" d="M1492.9,780.4c-90.4-41-164.5-238.2-123.4-328.6"/>
	<path class="st31" d="M1360,1046.5c-207.9,62.1-612.7-156.6-674.8-364.5"/>
	<path class="st32" d="M1264.6,711.4c-31-72.9,32-228.7,104.9-259.7"/>
	<path class="st33" d="M837.6,1109c23.1-87.3,188.7-183.7,276.1-160.6"/>
	<path class="st34" d="M1264.6,711.4c-37.6,90-228.9,168.7-318.9,131.1"/>
	<path class="st35" d="M1863.9,634.6c57.2,58.2,55.7,231.4-2.5,288.6"/>
	<path class="st23" d="M925.5,388.3C788.9,458.4,478.7,358.7,408.6,222"/>
	<path class="st36" d="M925.5,388.3c101.5-76.1,367.9-38,444,63.5"/>
	<path class="st37" d="M408.6,222c238.1-146.2,814.6-8.4,960.8,229.7"/>
	<path class="st38" d="M1861.4,923.2c-102.3,45.1-323.4-40.6-368.5-142.9"/>
	<path class="st39" d="M1861.4,923.2c-57.2-58.2-55.7-231.4,2.5-288.6"/>
	<path class="st12" d="M837.6,1109c-175.9,23.5-475-205.2-498.5-381.1"/>
	<path class="st40" d="M863.4,206.7c150.2-52.2,453.9,94.9,506.1,245.1"/>
	<path class="st41" d="M863.4,206.7c48.7,23.9,86,132.9,62.1,181.7"/>
	<path class="st42" d="M1369.5,451.8c-101.5,76.1-367.9,38-444-63.5"/>
	<path class="st2" d="M1492.9,780.4c-97,121.9-425.4,159.2-547.3,62.2"/>
	<path class="st31" d="M685.3,682c84.2-20,240.4,76.3,260.3,160.5"/>
	<path class="st43" d="M945.6,842.6c123.7-42.1,372.3,80.3,414.4,204"/>
	<path class="st44" d="M925.5,388.3c94.9,86.8,106.9,359.4,20.1,454.3"/>
	<path class="st28" d="M945.6,842.6c189.2-62,565.9,128.8,627.9,318"/>
	<path class="st45" d="M945.6,842.6c-94.9-86.8-106.9-359.4-20.1-454.3"/>
	<path class="st45" d="M945.6,842.6C802,731.8,752.7,350.3,863.4,206.7"/>
	<path class="st46" d="M863.4,206.7C922.9,337.4,816,622.6,685.3,682"/>
	<path class="st47" d="M1369.5,451.8c-150.2,52.2-453.9-94.9-506.1-245.1"/>
	<path class="st48" d="M685.3,682c115.9,54.9,207.2,311.1,152.3,427"/>
	<path class="st12" d="M837.6,1109C662.3,923.4,677.8,382,863.4,206.7"/>
	<path class="st49" d="M837.6,1109c-25.1-237.8,294.1-632.2,531.9-657.2"/>
	<path class="st50" d="M1113.6,948.4c134.4-49.5,410.3,77.7,459.8,212.1"/>
	<path class="st51" d="M1113.6,948.4c-48.2-150.5,105.3-448.5,255.8-496.7"/>
	<path class="st52" d="M1369.5,451.8c48.2,150.5-105.3,448.5-255.8,496.7"/>
	<path class="st53" d="M632.7,998.5c38-256.7,480.1-584.7,736.8-546.7"/>
	<path class="st23" d="M925.5,388.3c-56.1,75.7-253.9,105.1-329.6,49"/>
	<path class="st23" d="M685.3,682c-66.8-31.1-120.5-177.9-89.4-244.8"/>
	<path class="st28" d="M1360,1046.5c65.5-19.9,193.6,48.5,213.4,114"/>
	<path class="st44" d="M925.5,388.3c149.6,74.4,262.5,410.5,188.1,560.1"/>
	<path class="st24" d="M1863.9,634.6c-135.5,62.3-432.1-47.4-494.4-182.9"/>
	<path class="st23" d="M863.4,206.7c-7.4,99.6-167.9,238-267.6,230.6"/>
	<path class="st23" d="M595.9,437.3c56.1-75.7,253.9-105.1,329.6-49"/>
	<path class="st13" d="M863.4,206.7c240.6-11.2,618.3,333.1,629.5,573.7"/>
	<path class="st54" d="M1492.9,780.4c-240.6,11.2-618.3-333.1-629.5-573.7"/>
	<path class="st55" d="M685.3,682c121.7-110,469.3-92.4,579.3,29.4"/>
	<path class="st55" d="M925.5,388.3c132.4-3.2,335.9,190.7,339.1,323.1"/>
	<path class="st10" d="M837.6,1109c-115.9-54.9-207.2-311.1-152.3-427"/>
	<path class="st12" d="M1213.9,1195.1c-267.8-127.6-478.1-720.7-350.5-988.5"/>
	<path class="st2" d="M1492.9,780.4c-42.2,109.5-269.8,210.3-379.2,168"/>
	<path class="st56" d="M1492.9,780.4c-65.3,196.8-458.5,394-655.3,328.6"/>
	<path class="st33" d="M1113.6,948.4c-23.1,87.3-188.7,183.7-276.1,160.6"/>
	<path class="st23" d="M685.3,682C625.2,760.5,417.5,788,339,727.9"/>
	<path class="st57" d="M685.3,682c138.9-32.4,396,127.4,428.4,266.4"/>
	<path class="st12" d="M1004.1,1210.8C823.9,1062,776.7,568.5,925.5,388.3"/>
	<path class="st56" d="M1004.1,1210.8c11.7-183.8,304.9-442.1,488.8-430.5"/>
	<path class="st58" d="M925.5,388.3c191.9-35.1,532.3,200.2,567.4,392.1"/>
	<path class="st19" d="M1573.5,1160.6c-65.5,19.9-193.6-48.5-213.4-114"/>
	<path class="st59" d="M1573.5,1160.6c-103.8,123.9-445.4,154.1-569.4,50.3"/>
	<path class="st59" d="M1360,1046.5c-38.3,104-251.9,202.6-355.9,164.3"/>
	<path class="st60" d="M408.6,222c136.6-70.1,446.8,29.6,516.9,166.3"/>
	<path class="st61" d="M408.6,222c87.9-94,360.8-103.3,454.8-15.4"/>
	<path class="st44" d="M863.4,206.7c267.3,68.6,565.3,572.6,496.6,839.9"/>
	<path class="st11" d="M837.6,1109c167.6-241.9,781.9-353.4,1023.8-185.8"/>
	<path class="st51" d="M837.6,1109c5.9-164.9,262.1-403.5,427-397.6"/>
	<path class="st44" d="M945.6,842.6c-84.2,20-240.4-76.3-260.3-160.5"/>
	<path class="st48" d="M945.6,842.6c-231.5-16.7-553.7-389-537-620.5"/>
	<path class="st62" d="M685.3,682c-147.3-36.7-313.3-312.7-276.7-460"/>
	<path class="st58" d="M685.3,682c181.2-141.9,665.8-82.9,807.6,98.3"/>
	<path class="st13" d="M408.6,222c328.5-105.2,979.1,229.8,1084.3,558.3"/>
	<path class="st63" d="M1264.6,711.4c-181.2-20.7-421.9-323.6-401.1-504.8"/>
	<path class="st53" d="M1264.6,711.4c-69,183.8-448.1,356-631.9,287.1"/>
	<path class="st44" d="M863.4,206.7c112.2,204.5-26.2,679.6-230.8,791.8"/>
	<path class="st12" d="M1213.9,1195.1c-219-103.7-392.1-587.8-288.4-806.8"/>
	<path class="st59" d="M1213.9,1195.1c-155.6,76.9-504.3-41-581.3-196.6"/>
	<path class="st48" d="M925.5,388.3C989,568.9,813.3,935,632.7,998.5"/>
	<path class="st27" d="M1573.5,1160.6c-182.6-101-305-526.2-204-708.8"/>
	<path class="st54" d="M1492.9,780.4C1301,815.4,960.6,580.2,925.5,388.3"/>
	<path class="st12" d="M1360,1046.5c-274.7,31-733.2-334.6-764.2-609.2"/>
	<path class="st19" d="M1213.9,1195.1c-124.2-16.9-285.2-228.4-268.3-352.6"/>
	<path class="st13" d="M863.4,206.7c342.9-56.3,941.7,373.7,998,716.6"/>
	<path class="st58" d="M1861.4,923.2c-294.2,80.2-855.7-240.8-935.9-534.9"/>
	<path class="st13" d="M1861.4,923.2c-283.5,187-989.2,42.3-1176.1-241.2"/>
	<path class="st64" d="M1573.5,1160.6c-134.4,49.5-410.3-77.7-459.8-212.1"/>
	<path class="st65" d="M1369.5,451.8c-157.6,151.8-621.8,143.1-773.6-14.5"/>
	<path class="st12" d="M925.5,388.3c126.6,161.7,73.8,594.2-87.9,720.7"/>
	<path class="st66" d="M1004.1,1210.8c-169.5-42-360.8-359.3-318.8-528.8"/>
	<path class="st67" d="M1369.5,451.8c117.6,179.8,24.2,625.8-155.5,743.4"/>
	<path class="st68" d="M1861.4,923.2c-161.7,77-519.8-50.1-596.9-211.8"/>
	<path class="st9" d="M863.4,206.7c285.7-114.5,886,142.3,1000.5,428"/>
	<path class="st11" d="M1861.4,923.2c-199.3,167-748.8,118.6-915.8-80.7"/>
	<path class="st67" d="M1369.5,451.8c117.1,120.8,111.4,477.7-9.4,594.8"/>
	<path class="st39" d="M1492.9,780.4c102.3-45.1,323.4,40.6,368.5,142.9"/>
	<path class="st1" d="M945.6,842.6c199.3-167,748.8-118.6,915.8,80.7"/>
	<path class="st69" d="M1113.6,948.4c42.2-109.5,269.8-210.3,379.2-168"/>
	<path class="st70" d="M1113.6,948.4c-17.2-77.6,73.3-219.8,150.9-237"/>
	<path class="st68" d="M1492.9,780.4c-59.5,31.9-196.4-9.5-228.3-68.9"/>
	<path class="st14" d="M1863.9,634.6C1637.7,879.8,930.5,908.3,685.3,682"/>
	<path class="st64" d="M1360,1046.5c-92,117-405.5,154.5-522.5,62.5"/>
	<path class="st7" d="M1861.4,923.2c-343.5,265.4-1257,148.2-1522.4-195.3"/>
	<path class="st0" d="M1492.9,780.4C1364.5,996,848.3,1126.9,632.7,998.5"/>
	<path class="st45" d="M685.3,682c52.8,73.8,21.2,263.7-52.6,316.5"/>
	<path class="st48" d="M632.7,998.5c-52.8-73.8-21.2-263.7,52.6-316.5"/>
	<path class="st71" d="M1573.5,1160.6c-151.6-28-337-297.5-308.9-449.1"/>
	<path class="st1" d="M1861.4,923.2c-75.6,124.9-376.4,198.9-501.4,123.3"/>
	<path class="st56" d="M1863.9,634.6c47.1,163.3-127.2,478.8-290.4,525.9"/>
	<path class="st2" d="M1492.9,780.4c92.2,59.9,140.5,288,80.6,380.2"/>
	<path class="st59" d="M1360,1046.5c0.5,58.9-87.2,148.1-146.1,148.6"/>
	<path class="st17" d="M1264.6,711.4c-132.4,3.2-335.9-190.7-339.1-323.1"/>
	<path class="st59" d="M632.7,998.5c155.6-76.9,504.3,41,581.3,196.6"/>
	<path class="st72" d="M1369.5,451.8c44-93.9,250.8-168.8,344.7-124.8"/>
	<path class="st73" d="M1714.2,327c-44,93.9-250.8,168.8-344.7,124.8"/>
	<path class="st63" d="M1714.2,327C1520,473,1009.5,400.9,863.4,206.7"/>
	<path class="st19" d="M632.7,998.5c86.2-106.2,374.8-136.3,481-50.1"/>
	<path class="st1" d="M632.7,998.5c128.4-215.7,644.6-346.5,860.2-218.1"/>
	<path class="st66" d="M925.5,388.3C1144.1,433,1404.8,828,1360,1046.5"/>
	<path class="st64" d="M1573.5,1160.6c-189.2,62-565.9-128.8-627.9-318"/>
	<path class="st48" d="M1573.5,1160.6c-273.3,81.9-806.3-205.2-888.2-478.5"/>
	<path class="st59" d="M1360,1046.5c-155.1,135.9-591.5,107.1-727.4-48"/>
	<path class="st12" d="M1113.6,948.4c-199,110.8-663.8-21.5-774.6-220.5"/>
	<path class="st19" d="M945.6,842.6c124.2,16.9,285.2,228.4,268.3,352.6"/>
	<path class="st61" d="M408.6,222C556,258.7,721.9,534.7,685.3,682"/>
	<path class="st59" d="M837.6,1109c-63.1,18.9-186-47.4-204.9-110.5"/>
	<path class="st10" d="M837.6,1109C711,947.3,763.8,514.9,925.5,388.3"/>
	<path class="st48" d="M632.7,998.5c-63.5-180.6,112.2-546.7,292.9-610.2"/>
	<path class="st11" d="M1863.9,634.6c-110.4,300.1-726.2,584.8-1026.3,474.4"/>
	<path class="st64" d="M837.6,1109c-31.7-74.9,33.2-234.8,108.1-266.5"/>
	<path class="st48" d="M863.4,206.7c332.8,48.8,758.8,621.1,710.1,953.9"/>
	<path class="st48" d="M945.6,842.6c-151-11.1-360.9-254.3-349.8-405.3"/>
	<path class="st74" d="M1863.9,634.6c-104.5,135.2-464.1,181.3-599.3,76.8"/>
	<path class="st61" d="M339,727.9C399.1,649.5,606.9,622,685.3,682"/>
	<path class="st19" d="M632.7,998.5c31.4-93.8,219.2-187.3,313-155.9"/>
	<path class="st75" d="M1113.6,948.4c144.5-154.6,593.2-169.7,747.8-25.2"/>
	<path class="st19" d="M945.6,842.6c-31.4,93.8-219.2,187.3-313,155.9"/>
	<path class="st37" d="M1264.6,711.4c-188.6,78.9-589.8-85.6-668.7-274.2"/>
	<path class="st76" d="M1861.4,923.2c-192.7,4.1-487.9-278.8-491.9-471.5"/>
	<path class="st77" d="M1369.5,451.8c192.7-4.1,487.9,278.8,491.9,471.5"/>
	<path class="st63" d="M685.3,682C820,405.2,1437.4,192.2,1714.2,327"/>
	<path class="st78" d="M1861.4,923.2c-148.7-89.8-237-447.6-147.2-596.3"/>
	<path class="st48" d="M863.4,206.7c143.6,110.7,192.9,492.3,82.2,635.9"/>
	<path class="st60" d="M339,727.9c49.4-185.2,401.3-389,586.5-339.6"/>
	<path class="st59" d="M1113.6,948.4c69.4,29.3,129.6,177.3,100.3,246.7"/>
	<path class="st53" d="M632.7,998.5c82-350.6,730.9-753.5,1081.5-671.5"/>
	<path class="st74" d="M1492.9,780.4c-46.4-134.9,86.4-407,221.3-453.4"/>
	<path class="st61" d="M339,727.9c-87.3-115.1-45.5-418.6,69.6-505.9"/>
	<path class="st12" d="M1360,1046.5c-355.2,25.4-926-469.3-951.4-824.5"/>
	<path class="st50" d="M1360,1046.5c-68.9,29.7-216.7-29.2-246.4-98.1"/>
	<path class="st64" d="M1113.6,948.4c68.9-29.7,216.7,29.2,246.4,98.1"/>
	<path class="st12" d="M632.7,998.5C520.4,794,658.9,318.9,863.4,206.7"/>
	<path class="st48" d="M632.7,998.5C432.6,888,298.1,422.1,408.6,222"/>
	<path class="st48" d="M863.4,206.7c198.4,98.3,348.5,543.4,250.2,741.8"/>
	<path class="st1" d="M1573.5,1160.6c10.1-105.1,182.9-247.4,287.9-237.3"/>
	<path class="st68" d="M1264.6,711.4c59.5-31.9,196.4,9.5,228.3,68.9"/>
	<path class="st79" d="M863.4,206.7c181.2,20.7,421.9,323.6,401.1,504.8"/>
	<path class="st61" d="M925.5,388.3c-49.4,185.2-401.3,389-586.5,339.6"/>
	<path class="st1" d="M1573.5,1160.6c-92.2-59.9-140.5-288-80.6-380.2"/>
	<path class="st67" d="M1369.5,451.8c25.1,237.8-294.1,632.2-531.9,657.2"/>
	<path class="st78" d="M1264.6,711.4c104.5-135.2,464.1-181.3,599.3-76.8"/>
	<path class="st7" d="M1863.9,634.6c-236.9,138.4-800-9.4-938.4-246.3"/>
	<path class="st48" d="M1113.6,948.4C974.7,980.8,717.7,821,685.3,682"/>
	<path class="st12" d="M1113.6,948.4C964,874,851.1,538,925.5,388.3"/>
	<path class="st67" d="M1264.6,711.4c-5.9,164.9-262.1,403.5-427,397.6"/>
	<path class="st12" d="M1573.5,1160.6c-284-24.9-672.8-488.2-648-772.2"/>
	<path class="st53" d="M1369.5,451.8c182.6,101,305,526.2,204,708.8"/>
	<path class="st11" d="M1863.9,634.6c-87.3,212.8-537.4,401.1-750.3,313.8"/>
	<path class="st12" d="M632.7,998.5C513,893.6,491,556.9,595.9,437.3"/>
	<path class="st12" d="M595.9,437.3c119.6,104.9,141.7,441.6,36.8,561.2"/>
	<path class="st79" d="M1369.5,451.8C1218.6,713.1,600.4,878.7,339,727.9"/>
	<path class="st80" d="M1714.2,327c-13,166.8-282.8,397.5-449.6,384.5"/>
	<path class="st79" d="M339,727.9c150.9-261.3,769.1-427,1030.4-276.1"/>
	<path class="st59" d="M632.7,998.5c63.1-18.9,186,47.4,204.9,110.5"/>
	<path class="st59" d="M945.6,842.6c31.7,74.9-33.2,234.8-108.1,266.5"/>
	<path class="st56" d="M1863.9,634.6c-173.5,319-912.2,537.3-1231.2,363.9"/>
	<path class="st12" d="M595.9,437.3c151,11.1,360.9,254.3,349.8,405.3"/>
	<path class="st79" d="M595.9,437.3c157.6-151.8,621.8-143.1,773.6,14.5"/>
	<path class="st13" d="M1492.9,780.4C1164.4,885.6,513.8,550.6,408.6,222"/>
	<path class="st81" d="M945.6,842.6c37.6-90,228.9-168.7,318.9-131.1"/>
	<path class="st11" d="M1861.4,923.2c-144.5,154.6-593.2,169.7-747.8,25.2"/>
	<path class="st78" d="M1264.6,711.4c161.7-77,519.8,50.1,596.9,211.8"/>
	<path class="st12" d="M408.6,222c200.1,110.5,334.5,576.4,224,776.5"/>
	<path class="st56" d="M837.6,1109C948,808.9,1563.8,524.2,1863.9,634.6"/>
	<path class="st12" d="M863.4,206.7c175.3,185.6,159.8,727.1-25.8,902.4"/>
	<path class="st56" d="M837.6,1109c65.3-196.8,458.5-394,655.3-328.6"/>
	<path class="st53" d="M1714.2,327c-18.9,331.7-544.9,801-876.6,782.1"/>
	<path class="st11" d="M1861.4,923.2c-10.1,105.1-182.9,247.4-287.9,237.3"/>
	<path class="st61" d="M863.4,206.7c-87.9,94-360.8,103.3-454.8,15.4"/>
	<path class="st56" d="M1861.4,923.2c-167.6,241.9-781.9,353.4-1023.8,185.8"/>
	<path class="st59" d="M837.6,1109c92-117,405.5-154.5,522.5-62.5"/>
</g>
<g id="nodes">
	<circle class="st82" cx="1369.5" cy="451.8" r="65"/>
	<circle class="st83" cx="685.3" cy="682" r="48"/>
	<circle class="st82" cx="1264.6" cy="711.4" r="37.9"/>
	<circle class="st83" cx="925.5" cy="388.3" r="36.9"/>
	<circle class="st84" cx="1492.9" cy="780.4" r="35.7"/>
	<circle class="st85" cx="945.6" cy="842.6" r="32.9"/>
	<circle class="st83" cx="863.4" cy="206.7" r="31.2"/>
	
		<ellipse transform="matrix(0.9951 -9.853763e-02 9.853763e-02 0.9951 -88.0347 114.3512)" class="st85" cx="1113.6" cy="948.4" rx="31.2" ry="31.2"/>
	
		<ellipse transform="matrix(7.088900e-02 -0.9975 0.9975 7.088900e-02 219.7354 2328.9553)" class="st85" cx="1360" cy="1046.5" rx="31" ry="31"/>
	<circle class="st84" cx="1861.4" cy="923.2" r="29.7"/>
	<circle class="st85" cx="837.6" cy="1109" r="28.1"/>
	<circle class="st84" cx="1863.9" cy="634.6" r="27.9"/>
	<circle class="st85" cx="1573.5" cy="1160.6" r="27.2"/>
	<circle class="st83" cx="339" cy="727.9" r="24.6"/>
	<circle class="st83" cx="595.9" cy="437.3" r="24.4"/>
	<circle class="st85" cx="632.7" cy="998.5" r="23.4"/>
	<circle class="st82" cx="1714.2" cy="327" r="22.7"/>
	<circle class="st83" cx="408.6" cy="222" r="22.1"/>
	<circle class="st85" cx="1004.1" cy="1210.8" r="22"/>
	<circle class="st85" cx="1213.9" cy="1195.1" r="22"/>
</g>
<g id="node-labels">
	<text transform="matrix(0.6 0 0 0.6 1315.3612 437.589)" class="st86"><tspan x="0" y="0" class="st87 st88 st89">روتوم نغور</tspan><tspan x="21.9" y="78" class="st87 st88 st89">یداصتقا</tspan></text>
	<text transform="matrix(0.6 0 0 0.6 648.6549 684.527)" class="st87 st88 st90">یناریا دنرب</text>
	<text transform="matrix(0.6 0 0 0.6 1232.3184 701.8854)" class="st86"><tspan x="0" y="0" class="st87 st88 st91">روتوم نغور</tspan><tspan x="19.3" y="46" class="st87 st88 st91">مویمرپ</tspan></text>
	<text transform="matrix(0.6 0 0 0.6 894.6438 390.0392)" class="st87 st88 st92">یتادراو دنرب</text>
	<text transform="matrix(0.6 0 0 0.6 1466.3848 769.7644)" class="st86"><tspan x="0" y="0" class="st87 st88 st93">راکسیورس</tspan><tspan x="-4.9" y="42" class="st87 st88 st93">هدش هیصوت</tspan></text>
	<text transform="matrix(0.6 0 0 0.6 922.2141 831.6419)" class="st86"><tspan x="0" y="0" class="st87 st88 st94">یط تیلباق</tspan><tspan x="9.7" y="23.3" class="st87 st88 st94">تفاسم</tspan><tspan x="15.9" y="46.7" class="st87 st88 st94">رتشیب</tspan></text>
	<text transform="matrix(0.6 0 0 0.6 849.0856 198.9838)" class="st86"><tspan x="0" y="0" class="st87 st88 st95">تلاصا</tspan><tspan x="-19.3" y="30" class="st87 st88 st95">روتوم نغور</tspan></text>
	<text transform="matrix(0.6 0 0 0.6 1090.397 949.9899)" class="st87 st88 st95">ندرکن مک</text>
	<text transform="matrix(0.6 0 0 0.6 1349.6827 1034.8719)" class="st86"><tspan x="0" y="0" class="st87 st88 st95">مدع</tspan><tspan x="-22.3" y="38" class="st87 st88 st95">یگدنبسچ</tspan></text>
	<text transform="matrix(0.6 0 0 0.6 1838.2484 915.3979)" class="st86"><tspan x="0" y="0" class="st87 st88 st96">اب تییانشآ</tspan><tspan x="0" y="36" class="st87 st88 st96">راکسیورس</tspan></text>
	<text transform="matrix(0.6 0 0 0.6 819.9847 1099.2681)" class="st86"><tspan x="0" y="0" class="st87 st88 st94">تیفافش</tspan><tspan x="-10.4" y="34" class="st87 st88 st94">روتوم نغور</tspan></text>
	<text transform="matrix(0.6 0 0 0.6 1845.3575 626.7601)" class="st86"><tspan x="0" y="0" class="st87 st88 st94">هب دامتعا</tspan><tspan x="-4" y="34" class="st87 st88 st94">راکسیورس</tspan></text>
	<text transform="matrix(0.6 0 0 0.6 1552.6547 1149.8778)" class="st86"><tspan x="0" y="0" class="st87 st88 st97">ناور و مرن</tspan><tspan x="-5.7" y="23.3" class="st87 st88 st97">ندرک تکرح</tspan><tspan x="15.6" y="46.7" class="st87 st88 st97">روتوم</tspan></text>
	<text transform="matrix(0.6 0 0 0.6 324.049 729.868)" class="st87 st88 st98">تاغیلبت</text>
	<text transform="matrix(0.6 0 0 0.6 575.1565 431.1277)" class="st86"><tspan x="0" y="0" class="st87 st88 st98">سرتسد رد</tspan><tspan x="18.3" y="30" class="st87 st88 st98">ندوب</tspan></text>
	<text transform="matrix(0.6 0 0 0.6 616.5317 1001.7543)" class="st87 st88 st99">درادناتسا</text>
	<text transform="matrix(0.6 0 0 0.6 1694.1757 322.8455)" class="st86"><tspan x="0" y="0" class="st87 st88 st99">یور فیفخت</tspan><tspan x="18.2" y="28" class="st87 st88 st99">دیرخ</tspan></text>
	<text transform="matrix(0.6 0 0 0.6 393.8497 216.5175)" class="st86"><tspan x="0" y="0" class="st87 st88 st100">تحت دنرب</tspan><tspan x="1.4" y="26" class="st87 st88 st100">سناسیل</tspan></text>
	<text transform="matrix(0.6 0 0 0.6 991.8486 1202.634)" class="st86"><tspan x="0" y="0" class="st87 st88 st100">تیصاخ</tspan><tspan x="-7" y="26" class="st87 st88 st100">شیاسدض</tspan></text>
	<text transform="matrix(0.6 0 0 0.6 1199.6884 1188.9031)" class="st86"><tspan x="0" y="0" class="st87 st88 st100">رمع لوط</tspan><tspan x="9.7" y="26" class="st87 st88 st100">روتوم</tspan></text>
</g>
</svg>
